<?xml version="1.0" standalone="no"?>
<!DOCTYPE svg PUBLIC "-//W3C//DTD SVG 1.1//EN" "http://www.w3.org/Graphics/SVG/1.1/DTD/svg11.dtd">
<svg version="1.1" width="1200" height="470" onload="init(evt)" viewBox="0 0 1200 470" xmlns="http://www.w3.org/2000/svg" xmlns:xlink="http://www.w3.org/1999/xlink">
<!-- Flame graph stack visualization. See https://github.com/brendangregg/FlameGraph for latest version, and http://www.brendangregg.com/flamegraphs.html for examples. -->
<!-- NOTES:  -->
<defs>
	<linearGradient id="background" y1="0" y2="1" x1="0" x2="0" >
		<stop stop-color="#eeeeee" offset="5%" />
		<stop stop-color="#eeeeb0" offset="95%" />
	</linearGradient>
</defs>
<style type="text/css">
	text { font-family:Verdana; font-size:12px; fill:rgb(0,0,0); }
	#search, #ignorecase { opacity:0.1; cursor:pointer; }
	#search:hover, #search.show, #ignorecase:hover, #ignorecase.show { opacity:1; }
	#subtitle { text-anchor:middle; font-color:rgb(160,160,160); }
	#title { text-anchor:middle; font-size:17px}
	#unzoom { cursor:pointer; }
	#frames > *:hover { stroke:black; stroke-width:0.5; cursor:pointer; }
	.hide { display:none; }
	.parent { opacity:0.5; }
</style>
<script type="text/ecmascript">
<![CDATA[
	"use strict";
	var details, searchbtn, unzoombtn, matchedtxt, svg, searching, currentSearchTerm, ignorecase, ignorecaseBtn;
	function init(evt) {
		details = document.getElementById("details").firstChild;
		searchbtn = document.getElementById("search");
		ignorecaseBtn = document.getElementById("ignorecase");
		unzoombtn = document.getElementById("unzoom");
		matchedtxt = document.getElementById("matched");
		svg = document.getElementsByTagName("svg")[0];
		searching = 0;
		currentSearchTerm = null;

		// use GET parameters to restore a flamegraphs state.
		var params = get_params();
		if (params.x && params.y)
			zoom(find_group(document.querySelector('[x="' + params.x + '"][y="' + params.y + '"]')));
                if (params.s) search(params.s);
	}

	// event listeners
	window.addEventListener("click", function(e) {
		var target = find_group(e.target);
		if (target) {
			if (target.nodeName == "a") {
				if (e.ctrlKey === false) return;
				e.preventDefault();
			}
			if (target.classList.contains("parent")) unzoom(true);
			zoom(target);
			if (!document.querySelector('.parent')) {
				// we have basically done a clearzoom so clear the url
				var params = get_params();
				if (params.x) delete params.x;
				if (params.y) delete params.y;
				history.replaceState(null, null, parse_params(params));
				unzoombtn.classList.add("hide");
				return;
			}

			// set parameters for zoom state
			var el = target.querySelector("rect");
			if (el && el.attributes && el.attributes.y && el.attributes._orig_x) {
				var params = get_params()
				params.x = el.attributes._orig_x.value;
				params.y = el.attributes.y.value;
				history.replaceState(null, null, parse_params(params));
			}
		}
		else if (e.target.id == "unzoom") clearzoom();
		else if (e.target.id == "search") search_prompt();
		else if (e.target.id == "ignorecase") toggle_ignorecase();
	}, false)

	// mouse-over for info
	// show
	window.addEventListener("mouseover", function(e) {
		var target = find_group(e.target);
		if (target) details.nodeValue = "Function: " + g_to_text(target);
	}, false)

	// clear
	window.addEventListener("mouseout", function(e) {
		var target = find_group(e.target);
		if (target) details.nodeValue = ' ';
	}, false)

	// ctrl-F for search
	// ctrl-I to toggle case-sensitive search
	window.addEventListener("keydown",function (e) {
		if (e.keyCode === 114 || (e.ctrlKey && e.keyCode === 70)) {
			e.preventDefault();
			search_prompt();
		}
		else if (e.ctrlKey && e.keyCode === 73) {
			e.preventDefault();
			toggle_ignorecase();
		}
	}, false)

	// functions
	function get_params() {
		var params = {};
		var paramsarr = window.location.search.substr(1).split('&');
		for (var i = 0; i < paramsarr.length; ++i) {
			var tmp = paramsarr[i].split("=");
			if (!tmp[0] || !tmp[1]) continue;
			params[tmp[0]]  = decodeURIComponent(tmp[1]);
		}
		return params;
	}
	function parse_params(params) {
		var uri = "?";
		for (var key in params) {
			uri += key + '=' + encodeURIComponent(params[key]) + '&';
		}
		if (uri.slice(-1) == "&")
			uri = uri.substring(0, uri.length - 1);
		if (uri == '?')
			uri = window.location.href.split('?')[0];
		return uri;
	}
	function find_child(node, selector) {
		var children = node.querySelectorAll(selector);
		if (children.length) return children[0];
	}
	function find_group(node) {
		var parent = node.parentElement;
		if (!parent) return;
		if (parent.id == "frames") return node;
		return find_group(parent);
	}
	function orig_save(e, attr, val) {
		if (e.attributes["_orig_" + attr] != undefined) return;
		if (e.attributes[attr] == undefined) return;
		if (val == undefined) val = e.attributes[attr].value;
		e.setAttribute("_orig_" + attr, val);
	}
	function orig_load(e, attr) {
		if (e.attributes["_orig_"+attr] == undefined) return;
		e.attributes[attr].value = e.attributes["_orig_" + attr].value;
		e.removeAttribute("_orig_"+attr);
	}
	function g_to_text(e) {
		var text = find_child(e, "title").firstChild.nodeValue;
		return (text)
	}
	function g_to_func(e) {
		var func = g_to_text(e);
		// if there's any manipulation we want to do to the function
		// name before it's searched, do it here before returning.
		return (func);
	}
	function update_text(e) {
		var r = find_child(e, "rect");
		var t = find_child(e, "text");
		var w = parseFloat(r.attributes.width.value) -3;
		var txt = find_child(e, "title").textContent.replace(/\([^(]*\)$/,"");
		t.attributes.x.value = parseFloat(r.attributes.x.value) + 3;

		// Smaller than this size won't fit anything
		if (w < 2 * 12 * 0.59) {
			t.textContent = "";
			return;
		}

		t.textContent = txt;
		var sl = t.getSubStringLength(0, txt.length);
		// check if only whitespace or if we can fit the entire string into width w
		if (/^ *$/.test(txt) || sl < w)
			return;

		// this isn't perfect, but gives a good starting point
		// and avoids calling getSubStringLength too often
		var start = Math.floor((w/sl) * txt.length);
		for (var x = start; x > 0; x = x-2) {
			if (t.getSubStringLength(0, x + 2) <= w) {
				t.textContent = txt.substring(0, x) + "..";
				return;
			}
		}
		t.textContent = "";
	}

	// zoom
	function zoom_reset(e) {
		if (e.attributes != undefined) {
			orig_load(e, "x");
			orig_load(e, "width");
		}
		if (e.childNodes == undefined) return;
		for (var i = 0, c = e.childNodes; i < c.length; i++) {
			zoom_reset(c[i]);
		}
	}
	function zoom_child(e, x, ratio) {
		if (e.attributes != undefined) {
			if (e.attributes.x != undefined) {
				orig_save(e, "x");
				e.attributes.x.value = (parseFloat(e.attributes.x.value) - x - 10) * ratio + 10;
				if (e.tagName == "text")
					e.attributes.x.value = find_child(e.parentNode, "rect[x]").attributes.x.value + 3;
			}
			if (e.attributes.width != undefined) {
				orig_save(e, "width");
				e.attributes.width.value = parseFloat(e.attributes.width.value) * ratio;
			}
		}

		if (e.childNodes == undefined) return;
		for (var i = 0, c = e.childNodes; i < c.length; i++) {
			zoom_child(c[i], x - 10, ratio);
		}
	}
	function zoom_parent(e) {
		if (e.attributes) {
			if (e.attributes.x != undefined) {
				orig_save(e, "x");
				e.attributes.x.value = 10;
			}
			if (e.attributes.width != undefined) {
				orig_save(e, "width");
				e.attributes.width.value = parseInt(svg.width.baseVal.value) - (10 * 2);
			}
		}
		if (e.childNodes == undefined) return;
		for (var i = 0, c = e.childNodes; i < c.length; i++) {
			zoom_parent(c[i]);
		}
	}
	function zoom(node) {
		var attr = find_child(node, "rect").attributes;
		var width = parseFloat(attr.width.value);
		var xmin = parseFloat(attr.x.value);
		var xmax = parseFloat(xmin + width);
		var ymin = parseFloat(attr.y.value);
		var ratio = (svg.width.baseVal.value - 2 * 10) / width;

		// XXX: Workaround for JavaScript float issues (fix me)
		var fudge = 0.0001;

		unzoombtn.classList.remove("hide");

		var el = document.getElementById("frames").children;
		for (var i = 0; i < el.length; i++) {
			var e = el[i];
			var a = find_child(e, "rect").attributes;
			var ex = parseFloat(a.x.value);
			var ew = parseFloat(a.width.value);
			var upstack;
			// Is it an ancestor
			if (0 == 0) {
				upstack = parseFloat(a.y.value) > ymin;
			} else {
				upstack = parseFloat(a.y.value) < ymin;
			}
			if (upstack) {
				// Direct ancestor
				if (ex <= xmin && (ex+ew+fudge) >= xmax) {
					e.classList.add("parent");
					zoom_parent(e);
					update_text(e);
				}
				// not in current path
				else
					e.classList.add("hide");
			}
			// Children maybe
			else {
				// no common path
				if (ex < xmin || ex + fudge >= xmax) {
					e.classList.add("hide");
				}
				else {
					zoom_child(e, xmin, ratio);
					update_text(e);
				}
			}
		}
		search();
	}
	function unzoom(dont_update_text) {
		unzoombtn.classList.add("hide");
		var el = document.getElementById("frames").children;
		for(var i = 0; i < el.length; i++) {
			el[i].classList.remove("parent");
			el[i].classList.remove("hide");
			zoom_reset(el[i]);
			if(!dont_update_text) update_text(el[i]);
		}
		search();
	}
	function clearzoom() {
		unzoom();

		// remove zoom state
		var params = get_params();
		if (params.x) delete params.x;
		if (params.y) delete params.y;
		history.replaceState(null, null, parse_params(params));
	}

	// search
	function toggle_ignorecase() {
		ignorecase = !ignorecase;
		if (ignorecase) {
			ignorecaseBtn.classList.add("show");
		} else {
			ignorecaseBtn.classList.remove("show");
		}
		reset_search();
		search();
	}
	function reset_search() {
		var el = document.querySelectorAll("#frames rect");
		for (var i = 0; i < el.length; i++) {
			orig_load(el[i], "fill")
		}
		var params = get_params();
		delete params.s;
		history.replaceState(null, null, parse_params(params));
	}
	function search_prompt() {
		if (!searching) {
			var term = prompt("Enter a search term (regexp " +
			    "allowed, eg: ^ext4_)"
			    + (ignorecase ? ", ignoring case" : "")
			    + "\nPress Ctrl-i to toggle case sensitivity", "");
			if (term != null) search(term);
		} else {
			reset_search();
			searching = 0;
			currentSearchTerm = null;
			searchbtn.classList.remove("show");
			searchbtn.firstChild.nodeValue = "Search"
			matchedtxt.classList.add("hide");
			matchedtxt.firstChild.nodeValue = ""
		}
	}
	function search(term) {
		if (term) currentSearchTerm = term;
		if (currentSearchTerm === null) return;

		var re = new RegExp(currentSearchTerm, ignorecase ? 'i' : '');
		var el = document.getElementById("frames").children;
		var matches = new Object();
		var maxwidth = 0;
		for (var i = 0; i < el.length; i++) {
			var e = el[i];
			var func = g_to_func(e);
			var rect = find_child(e, "rect");
			if (func == null || rect == null)
				continue;

			// Save max width. Only works as we have a root frame
			var w = parseFloat(rect.attributes.width.value);
			if (w > maxwidth)
				maxwidth = w;

			if (func.match(re)) {
				// highlight
				var x = parseFloat(rect.attributes.x.value);
				orig_save(rect, "fill");
				rect.attributes.fill.value = "rgb(230,0,230)";

				// remember matches
				if (matches[x] == undefined) {
					matches[x] = w;
				} else {
					if (w > matches[x]) {
						// overwrite with parent
						matches[x] = w;
					}
				}
				searching = 1;
			}
		}
		if (!searching)
			return;
		var params = get_params();
		params.s = currentSearchTerm;
		history.replaceState(null, null, parse_params(params));

		searchbtn.classList.add("show");
		searchbtn.firstChild.nodeValue = "Reset Search";

		// calculate percent matched, excluding vertical overlap
		var count = 0;
		var lastx = -1;
		var lastw = 0;
		var keys = Array();
		for (k in matches) {
			if (matches.hasOwnProperty(k))
				keys.push(k);
		}
		// sort the matched frames by their x location
		// ascending, then width descending
		keys.sort(function(a, b){
			return a - b;
		});
		// Step through frames saving only the biggest bottom-up frames
		// thanks to the sort order. This relies on the tree property
		// where children are always smaller than their parents.
		var fudge = 0.0001;	// JavaScript floating point
		for (var k in keys) {
			var x = parseFloat(keys[k]);
			var w = matches[keys[k]];
			if (x >= lastx + lastw - fudge) {
				count += w;
				lastx = x;
				lastw = w;
			}
		}
		// display matched percent
		matchedtxt.classList.remove("hide");
		var pct = 100 * count / maxwidth;
		if (pct != 100) pct = pct.toFixed(1)
		matchedtxt.firstChild.nodeValue = "Matched: " + pct + "%";
	}
]]>
</script>
<rect x="0.0" y="0" width="1200.0" height="470.0" fill="url(#background)"  />
<text id="title" x="600.00" y="24" >Flame Graph</text>
<text id="details" x="10.00" y="453" > </text>
<text id="unzoom" x="10.00" y="24" class="hide">Reset Zoom</text>
<text id="search" x="1090.00" y="24" >Search</text>
<text id="ignorecase" x="1174.00" y="24" >ic</text>
<text id="matched" x="1090.00" y="453" > </text>
<g id="frames">
<g >
<title>katana::ring_buffer_queue&lt;int&gt;::spsc_pop_available (245,329,492 samples, 5.08%)</title><rect x="10.1" y="213" width="59.9" height="15.0" fill="rgb(205,4,1)" rx="2" ry="2" />
<text  x="13.06" y="223.5" >katana..</text>
</g>
<g >
<title>__invoke_impl&lt;void, benchmark_ring_buffer_concurrent (2,949,923,614 samples, 61.04%)</title><rect x="10.1" y="277" width="720.3" height="15.0" fill="rgb(234,133,31)" rx="2" ry="2" />
<text  x="13.06" y="287.5" >__invoke_impl&lt;void, benchmark_ring_buffer_concurrent</text>
</g>
<g >
<title>do_execveat_common.isra.0 (20,932,276 samples, 0.43%)</title><rect x="1182.8" y="325" width="5.1" height="15.0" fill="rgb(231,123,29)" rx="2" ry="2" />
<text  x="1185.75" y="335.5" ></text>
</g>
<g >
<title>sysvec_hyperv_stimer0 (629,385 samples, 0.01%)</title><rect x="903.1" y="261" width="0.1" height="15.0" fill="rgb(212,35,8)" rx="2" ry="2" />
<text  x="906.06" y="271.5" ></text>
</g>
<g >
<title>katana::ring_buffer_queue&lt;int&gt;::current_thread_id (425,381,821 samples, 8.80%)</title><rect x="1078.9" y="293" width="103.9" height="15.0" fill="rgb(232,126,30)" rx="2" ry="2" />
<text  x="1081.88" y="303.5" >katana::ring..</text>
</g>
<g >
<title>do_syscall_64 (992,915 samples, 0.02%)</title><rect x="1078.6" y="245" width="0.3" height="15.0" fill="rgb(209,20,4)" rx="2" ry="2" />
<text  x="1081.64" y="255.5" ></text>
</g>
<g >
<title>katana::simd::find_crlf (61,522,722 samples, 1.27%)</title><rect x="914.9" y="309" width="15.0" height="15.0" fill="rgb(222,80,19)" rx="2" ry="2" />
<text  x="917.91" y="319.5" ></text>
</g>
<g >
<title>benchmark_circular_buffer (130,215,334 samples, 2.69%)</title><rect x="1046.8" y="293" width="31.8" height="15.0" fill="rgb(214,43,10)" rx="2" ry="2" />
<text  x="1049.84" y="303.5" >be..</text>
</g>
<g >
<title>operator (2,949,923,614 samples, 61.04%)</title><rect x="10.1" y="325" width="720.3" height="15.0" fill="rgb(254,228,54)" rx="2" ry="2" />
<text  x="13.06" y="335.5" >operator</text>
</g>
<g >
<title>katana::http::(anonymous namespace)::is_token_char (72,372,541 samples, 1.50%)</title><rect x="786.4" y="293" width="17.6" height="15.0" fill="rgb(221,77,18)" rx="2" ry="2" />
<text  x="789.35" y="303.5" ></text>
</g>
<g >
<title>std::span&lt;unsigned char const, 18446744073709551615ul&gt;::size (94,381,342 samples, 1.95%)</title><rect x="941.5" y="341" width="23.0" height="15.0" fill="rgb(206,5,1)" rx="2" ry="2" />
<text  x="944.48" y="351.5" >s..</text>
</g>
<g >
<title>katana::http::parser::parse (635,287,688 samples, 13.15%)</title><rect x="786.4" y="341" width="155.1" height="15.0" fill="rgb(240,162,38)" rx="2" ry="2" />
<text  x="789.35" y="351.5" >katana::http::parse..</text>
</g>
<g >
<title>void std::__atomic_wait_address_v&lt;unsigned long, std::__atomic_base&lt;unsigned long&gt;::wait (1,958,997 samples, 0.04%)</title><rect x="713.6" y="213" width="0.5" height="15.0" fill="rgb(247,195,46)" rx="2" ry="2" />
<text  x="716.58" y="223.5" ></text>
</g>
<g >
<title>do_vmi_align_munmap (20,932,276 samples, 0.43%)</title><rect x="1182.8" y="213" width="5.1" height="15.0" fill="rgb(211,29,7)" rx="2" ry="2" />
<text  x="1185.75" y="223.5" ></text>
</g>
<g >
<title>all (4,832,467,820 samples, 100%)</title><rect x="10.0" y="421" width="1180.0" height="15.0" fill="rgb(213,39,9)" rx="2" ry="2" />
<text  x="13.00" y="431.5" ></text>
</g>
<g >
<title>katana::http::ci_equal_short (354,465,868 samples, 7.34%)</title><rect x="816.5" y="245" width="86.6" height="15.0" fill="rgb(214,44,10)" rx="2" ry="2" />
<text  x="819.51" y="255.5" >katana::ht..</text>
</g>
<g >
<title>benchmark_ring_buffer_queue (425,381,821 samples, 8.80%)</title><rect x="1078.9" y="325" width="103.9" height="15.0" fill="rgb(223,87,20)" rx="2" ry="2" />
<text  x="1081.88" y="335.5" >benchmark_ri..</text>
</g>
<g >
<title>ret_from_fork (8,748,703 samples, 0.18%)</title><rect x="1187.9" y="373" width="2.1" height="15.0" fill="rgb(227,105,25)" rx="2" ry="2" />
<text  x="1190.86" y="383.5" ></text>
</g>
<g >
<title>std::array&lt;katana::monotonic_arena::block, 32ul&gt;::~array (94,291,772 samples, 1.95%)</title><rect x="1023.8" y="293" width="23.0" height="15.0" fill="rgb(244,179,43)" rx="2" ry="2" />
<text  x="1026.82" y="303.5" >s..</text>
</g>
<g >
<title>[libc.so.6] (992,915 samples, 0.02%)</title><rect x="1078.6" y="277" width="0.3" height="15.0" fill="rgb(223,84,20)" rx="2" ry="2" />
<text  x="1081.64" y="287.5" ></text>
</g>
<g >
<title>_raw_spin_lock_irq (7,337,944 samples, 0.15%)</title><rect x="1188.2" y="325" width="1.8" height="15.0" fill="rgb(231,122,29)" rx="2" ry="2" />
<text  x="1191.21" y="335.5" ></text>
</g>
<g >
<title>katana::ring_buffer_queue&lt;int&gt;::maybe_notify (76,190,138 samples, 1.58%)</title><rect x="393.1" y="197" width="18.6" height="15.0" fill="rgb(240,161,38)" rx="2" ry="2" />
<text  x="396.13" y="207.5" ></text>
</g>
<g >
<title>syscall (1,958,997 samples, 0.04%)</title><rect x="713.6" y="149" width="0.5" height="15.0" fill="rgb(234,136,32)" rx="2" ry="2" />
<text  x="716.58" y="159.5" ></text>
</g>
<g >
<title>std::thread::_State_impl&lt;std::thread::_Invoker&lt;std::tuple&lt;benchmark_ring_buffer_concurrent (66,821,447 samples, 1.38%)</title><rect x="714.1" y="261" width="16.3" height="15.0" fill="rgb(254,226,54)" rx="2" ry="2" />
<text  x="717.06" y="271.5" ></text>
</g>
<g >
<title>__x64_sys_execve (20,932,276 samples, 0.43%)</title><rect x="1182.8" y="341" width="5.1" height="15.0" fill="rgb(247,193,46)" rx="2" ry="2" />
<text  x="1185.75" y="351.5" ></text>
</g>
<g >
<title>[libc.so.6] (556,590,070 samples, 11.52%)</title><rect x="1046.8" y="357" width="136.0" height="15.0" fill="rgb(223,84,20)" rx="2" ry="2" />
<text  x="1049.84" y="367.5" >[libc.so.6]</text>
</g>
<g >
<title>katana::http::parser::~parser (94,291,772 samples, 1.95%)</title><rect x="1023.8" y="357" width="23.0" height="15.0" fill="rgb(239,160,38)" rx="2" ry="2" />
<text  x="1026.82" y="367.5" >k..</text>
</g>
<g >
<title>operator (2,883,102,167 samples, 59.66%)</title><rect x="10.1" y="261" width="704.0" height="15.0" fill="rgb(254,228,54)" rx="2" ry="2" />
<text  x="13.06" y="271.5" >operator</text>
</g>
<g >
<title>katana::http::headers_map::operator= (195,555,034 samples, 4.05%)</title><rect x="976.1" y="341" width="47.7" height="15.0" fill="rgb(241,165,39)" rx="2" ry="2" />
<text  x="979.07" y="351.5" >kata..</text>
</g>
<g >
<title>main (556,590,070 samples, 11.52%)</title><rect x="1046.8" y="341" width="136.0" height="15.0" fill="rgb(243,179,42)" rx="2" ry="2" />
<text  x="1049.84" y="351.5" >main</text>
</g>
<g >
<title>std::__atomic_base&lt;unsigned long&gt;::compare_exchange_weak (1,236,136,638 samples, 25.58%)</title><rect x="411.7" y="181" width="301.9" height="15.0" fill="rgb(208,14,3)" rx="2" ry="2" />
<text  x="414.74" y="191.5" >std::__atomic_base&lt;unsigned long&gt;::compa..</text>
</g>
<g >
<title>std::__atomic_base&lt;unsigned long&gt;::compare_exchange_weak (797,235,287 samples, 16.50%)</title><rect x="113.5" y="197" width="194.7" height="15.0" fill="rgb(208,14,3)" rx="2" ry="2" />
<text  x="116.49" y="207.5" >std::__atomic_base&lt;unsign..</text>
</g>
<g >
<title>[unknown] (1,296,032,747 samples, 26.82%)</title><rect x="730.4" y="389" width="316.4" height="15.0" fill="rgb(210,24,5)" rx="2" ry="2" />
<text  x="733.38" y="399.5" >[unknown]</text>
</g>
<g >
<title>do_futex (1,958,997 samples, 0.04%)</title><rect x="713.6" y="69" width="0.5" height="15.0" fill="rgb(245,184,44)" rx="2" ry="2" />
<text  x="716.58" y="79.5" ></text>
</g>
<g >
<title>std::thread::join (992,915 samples, 0.02%)</title><rect x="1078.6" y="309" width="0.3" height="15.0" fill="rgb(253,222,53)" rx="2" ry="2" />
<text  x="1081.64" y="319.5" ></text>
</g>
<g >
<title>katana::ring_buffer_queue&lt;int&gt;::try_pop_mpmc (975,504,417 samples, 20.19%)</title><rect x="70.0" y="213" width="238.2" height="15.0" fill="rgb(217,56,13)" rx="2" ry="2" />
<text  x="72.96" y="223.5" >katana::ring_buffer_queue&lt;int&gt;:..</text>
</g>
<g >
<title>katana::http::parser::parse_headers_state (588,011,922 samples, 12.17%)</title><rect x="786.4" y="325" width="143.5" height="15.0" fill="rgb(213,39,9)" rx="2" ry="2" />
<text  x="789.35" y="335.5" >katana::http::pars..</text>
</g>
<g >
<title>katana::http::ci_equal (354,465,868 samples, 7.34%)</title><rect x="816.5" y="261" width="86.6" height="15.0" fill="rgb(245,187,44)" rx="2" ry="2" />
<text  x="819.51" y="271.5" >katana::ht..</text>
</g>
<g >
<title>katana::ring_buffer_queue&lt;int&gt;::try_pop (1,220,833,909 samples, 25.26%)</title><rect x="10.1" y="229" width="298.1" height="15.0" fill="rgb(252,217,52)" rx="2" ry="2" />
<text  x="13.06" y="239.5" >katana::ring_buffer_queue&lt;int&gt;::try_pop</text>
</g>
<g >
<title>katana::http::(anonymous namespace)::contains_invalid_uri_char (47,275,766 samples, 0.98%)</title><rect x="929.9" y="293" width="11.6" height="15.0" fill="rgb(254,229,54)" rx="2" ry="2" />
<text  x="932.93" y="303.5" ></text>
</g>
<g >
<title>katana::http::parser::parse (958,909,975 samples, 19.84%)</title><rect x="730.4" y="357" width="234.1" height="15.0" fill="rgb(240,162,38)" rx="2" ry="2" />
<text  x="733.38" y="367.5" >katana::http::parser::parse</text>
</g>
<g >
<title>katana::circular_buffer::read (130,215,334 samples, 2.69%)</title><rect x="1046.8" y="309" width="31.8" height="15.0" fill="rgb(252,220,52)" rx="2" ry="2" />
<text  x="1049.84" y="319.5" >ka..</text>
</g>
<g >
<title>srso_alias_return_thunk (992,915 samples, 0.02%)</title><rect x="1078.6" y="181" width="0.3" height="15.0" fill="rgb(241,167,39)" rx="2" ry="2" />
<text  x="1081.64" y="191.5" ></text>
</g>
<g >
<title>x64_sys_call (992,915 samples, 0.02%)</title><rect x="1078.6" y="229" width="0.3" height="15.0" fill="rgb(247,194,46)" rx="2" ry="2" />
<text  x="1081.64" y="239.5" ></text>
</g>
<g >
<title>[libc.so.6] (992,915 samples, 0.02%)</title><rect x="1078.6" y="293" width="0.3" height="15.0" fill="rgb(223,84,20)" rx="2" ry="2" />
<text  x="1081.64" y="303.5" ></text>
</g>
<g >
<title>katana::http::ci_equal (51,122,965 samples, 1.06%)</title><rect x="804.0" y="277" width="12.5" height="15.0" fill="rgb(245,187,44)" rx="2" ry="2" />
<text  x="807.02" y="287.5" ></text>
</g>
<g >
<title>schedule (629,385 samples, 0.01%)</title><rect x="903.1" y="197" width="0.1" height="15.0" fill="rgb(254,229,54)" rx="2" ry="2" />
<text  x="906.06" y="207.5" ></text>
</g>
<g >
<title>katana::http::parser::process_header_line (526,489,200 samples, 10.89%)</title><rect x="786.4" y="309" width="128.5" height="15.0" fill="rgb(215,47,11)" rx="2" ry="2" />
<text  x="789.35" y="319.5" >katana::http::pa..</text>
</g>
<g >
<title>katana::ring_buffer_queue&lt;int&gt;::try_push (1,660,309,261 samples, 34.36%)</title><rect x="308.2" y="229" width="405.4" height="15.0" fill="rgb(222,79,19)" rx="2" ry="2" />
<text  x="311.16" y="239.5" >katana::ring_buffer_queue&lt;int&gt;::try_push</text>
</g>
<g >
<title>std::array&lt;katana::monotonic_arena::block, 32ul&gt;::operator= (195,555,034 samples, 4.05%)</title><rect x="976.1" y="309" width="47.7" height="15.0" fill="rgb(212,36,8)" rx="2" ry="2" />
<text  x="979.07" y="319.5" >std:..</text>
</g>
<g >
<title>futex_wait_queue (638,006 samples, 0.01%)</title><rect x="713.6" y="37" width="0.1" height="15.0" fill="rgb(225,92,22)" rx="2" ry="2" />
<text  x="716.58" y="47.5" ></text>
</g>
<g >
<title>katana::ring_buffer_queue&lt;int&gt;::push_wait (1,662,268,258 samples, 34.40%)</title><rect x="308.2" y="245" width="405.9" height="15.0" fill="rgb(216,54,12)" rx="2" ry="2" />
<text  x="311.16" y="255.5" >katana::ring_buffer_queue&lt;int&gt;::push_wait</text>
</g>
<g >
<title>katana::ring_buffer_queue&lt;int&gt;::pop_wait (1,220,833,909 samples, 25.26%)</title><rect x="10.1" y="245" width="298.1" height="15.0" fill="rgb(246,192,45)" rx="2" ry="2" />
<text  x="13.06" y="255.5" >katana::ring_buffer_queue&lt;int&gt;::pop_wait</text>
</g>
<g >
<title>unmap_region.constprop.0 (20,932,276 samples, 0.43%)</title><rect x="1182.8" y="197" width="5.1" height="15.0" fill="rgb(254,228,54)" rx="2" ry="2" />
<text  x="1185.75" y="207.5" ></text>
</g>
<g >
<title>void std::__detail::__waiter&lt;std::integral_constant&lt;bool, true&gt; &gt;::_M_do_wait_v&lt;unsigned long, std::__atomic_base&lt;unsigned long&gt;::wait (1,958,997 samples, 0.04%)</title><rect x="713.6" y="197" width="0.5" height="15.0" fill="rgb(246,191,45)" rx="2" ry="2" />
<text  x="716.58" y="207.5" ></text>
</g>
<g >
<title>katana::http::(anonymous namespace)::is_ctl (47,275,766 samples, 0.98%)</title><rect x="929.9" y="277" width="11.6" height="15.0" fill="rgb(244,179,42)" rx="2" ry="2" />
<text  x="932.93" y="287.5" ></text>
</g>
<g >
<title>katana::http::string_to_field (354,465,868 samples, 7.34%)</title><rect x="816.5" y="293" width="86.6" height="15.0" fill="rgb(229,114,27)" rx="2" ry="2" />
<text  x="819.51" y="303.5" >katana::ht..</text>
</g>
<g >
<title>std::_Hash_impl::hash (425,381,821 samples, 8.80%)</title><rect x="1078.9" y="245" width="103.9" height="15.0" fill="rgb(226,96,23)" rx="2" ry="2" />
<text  x="1081.88" y="255.5" >std::_Hash_i..</text>
</g>
<g >
<title>katana::monotonic_arena::block::operator= (195,555,034 samples, 4.05%)</title><rect x="976.1" y="293" width="47.7" height="15.0" fill="rgb(243,175,41)" rx="2" ry="2" />
<text  x="979.07" y="303.5" >kata..</text>
</g>
<g >
<title>__x64_sys_futex (1,958,997 samples, 0.04%)</title><rect x="713.6" y="85" width="0.5" height="15.0" fill="rgb(239,159,38)" rx="2" ry="2" />
<text  x="716.58" y="95.5" ></text>
</g>
<g >
<title>[libc.so.6] (2,949,923,614 samples, 61.04%)</title><rect x="10.1" y="373" width="720.3" height="15.0" fill="rgb(223,84,20)" rx="2" ry="2" />
<text  x="13.06" y="383.5" >[libc.so.6]</text>
</g>
<g >
<title>[libc.so.6] (2,949,923,614 samples, 61.04%)</title><rect x="10.1" y="389" width="720.3" height="15.0" fill="rgb(223,84,20)" rx="2" ry="2" />
<text  x="13.06" y="399.5" >[libc.so.6]</text>
</g>
<g >
<title>do_syscall_64 (1,958,997 samples, 0.04%)</title><rect x="713.6" y="117" width="0.5" height="15.0" fill="rgb(209,20,4)" rx="2" ry="2" />
<text  x="716.58" y="127.5" ></text>
</g>
<g >
<title>__invoke&lt;benchmark_ring_buffer_concurrent (2,949,923,614 samples, 61.04%)</title><rect x="10.1" y="293" width="720.3" height="15.0" fill="rgb(245,187,44)" rx="2" ry="2" />
<text  x="13.06" y="303.5" >__invoke&lt;benchmark_ring_buffer_concurrent</text>
</g>
<g >
<title>calculate_sigpending (7,337,944 samples, 0.15%)</title><rect x="1188.2" y="341" width="1.8" height="15.0" fill="rgb(241,167,39)" rx="2" ry="2" />
<text  x="1191.21" y="351.5" ></text>
</g>
<g >
<title>std::__atomic_base&lt;unsigned long&gt;::compare_exchange_weak (797,235,287 samples, 16.50%)</title><rect x="113.5" y="181" width="194.7" height="15.0" fill="rgb(208,14,3)" rx="2" ry="2" />
<text  x="116.49" y="191.5" >std::__atomic_base&lt;unsign..</text>
</g>
<g >
<title>katana::http::headers_map::~headers_map (94,291,772 samples, 1.95%)</title><rect x="1023.8" y="325" width="23.0" height="15.0" fill="rgb(233,130,31)" rx="2" ry="2" />
<text  x="1026.82" y="335.5" >k..</text>
</g>
<g >
<title>mas_find (20,932,276 samples, 0.43%)</title><rect x="1182.8" y="165" width="5.1" height="15.0" fill="rgb(232,126,30)" rx="2" ry="2" />
<text  x="1185.75" y="175.5" ></text>
</g>
<g >
<title>void std::__detail::__platform_wait&lt;int&gt; (1,958,997 samples, 0.04%)</title><rect x="713.6" y="165" width="0.5" height="15.0" fill="rgb(234,136,32)" rx="2" ry="2" />
<text  x="716.58" y="175.5" ></text>
</g>
<g >
<title>in_lock_functions (1,712,766 samples, 0.04%)</title><rect x="1188.2" y="309" width="0.4" height="15.0" fill="rgb(238,155,37)" rx="2" ry="2" />
<text  x="1191.21" y="319.5" ></text>
</g>
<g >
<title>katana::http::ci_equal_fast (354,465,868 samples, 7.34%)</title><rect x="816.5" y="277" width="86.6" height="15.0" fill="rgb(254,227,54)" rx="2" ry="2" />
<text  x="819.51" y="287.5" >katana::ht..</text>
</g>
<g >
<title>_M_run (2,949,923,614 samples, 61.04%)</title><rect x="10.1" y="341" width="720.3" height="15.0" fill="rgb(235,142,34)" rx="2" ry="2" />
<text  x="13.06" y="351.5" >_M_run</text>
</g>
<g >
<title>std::hash&lt;std::thread::id&gt;::operator (425,381,821 samples, 8.80%)</title><rect x="1078.9" y="277" width="103.9" height="15.0" fill="rgb(222,81,19)" rx="2" ry="2" />
<text  x="1081.88" y="287.5" >std::hash&lt;st..</text>
</g>
<g >
<title>_mm_movemask_epi8 (51,122,965 samples, 1.06%)</title><rect x="804.0" y="245" width="12.5" height="15.0" fill="rgb(247,195,46)" rx="2" ry="2" />
<text  x="807.02" y="255.5" ></text>
</g>
<g >
<title>katana::monotonic_arena::operator= (195,555,034 samples, 4.05%)</title><rect x="976.1" y="325" width="47.7" height="15.0" fill="rgb(220,73,17)" rx="2" ry="2" />
<text  x="979.07" y="335.5" >kata..</text>
</g>
<g >
<title>__libc_start_main (556,590,070 samples, 11.52%)</title><rect x="1046.8" y="373" width="136.0" height="15.0" fill="rgb(236,142,34)" rx="2" ry="2" />
<text  x="1049.84" y="383.5" >__libc_start_main</text>
</g>
<g >
<title>_M_invoke&lt;0&gt; (2,949,923,614 samples, 61.04%)</title><rect x="10.1" y="309" width="720.3" height="15.0" fill="rgb(228,109,26)" rx="2" ry="2" />
<text  x="13.06" y="319.5" >_M_invoke&lt;0&gt;</text>
</g>
<g >
<title>preempt_count_add (5,625,178 samples, 0.12%)</title><rect x="1188.6" y="309" width="1.4" height="15.0" fill="rgb(253,222,53)" rx="2" ry="2" />
<text  x="1191.63" y="319.5" ></text>
</g>
<g >
<title>__x64_sys_futex (992,915 samples, 0.02%)</title><rect x="1078.6" y="213" width="0.3" height="15.0" fill="rgb(239,159,38)" rx="2" ry="2" />
<text  x="1081.64" y="223.5" ></text>
</g>
<g >
<title>[libc.so.6] (130,215,334 samples, 2.69%)</title><rect x="1046.8" y="277" width="31.8" height="15.0" fill="rgb(223,84,20)" rx="2" ry="2" />
<text  x="1049.84" y="287.5" >[l..</text>
</g>
<g >
<title>[libstdc++.so.6.0.33] (2,949,923,614 samples, 61.04%)</title><rect x="10.1" y="357" width="720.3" height="15.0" fill="rgb(216,51,12)" rx="2" ry="2" />
<text  x="13.06" y="367.5" >[libstdc++.so.6.0.33]</text>
</g>
<g >
<title>asm_sysvec_hyperv_stimer0 (629,385 samples, 0.01%)</title><rect x="903.1" y="277" width="0.1" height="15.0" fill="rgb(225,94,22)" rx="2" ry="2" />
<text  x="906.06" y="287.5" ></text>
</g>
<g >
<title>srso_alias_safe_ret (1,320,991 samples, 0.03%)</title><rect x="713.7" y="53" width="0.4" height="15.0" fill="rgb(242,170,40)" rx="2" ry="2" />
<text  x="716.74" y="63.5" ></text>
</g>
<g >
<title>bprm_execve (20,932,276 samples, 0.43%)</title><rect x="1182.8" y="309" width="5.1" height="15.0" fill="rgb(218,61,14)" rx="2" ry="2" />
<text  x="1185.75" y="319.5" ></text>
</g>
<g >
<title>katana::ring_buffer_queue&lt;int&gt;::try_push_mpmc (1,660,309,261 samples, 34.36%)</title><rect x="308.2" y="213" width="405.4" height="15.0" fill="rgb(237,148,35)" rx="2" ry="2" />
<text  x="311.16" y="223.5" >katana::ring_buffer_queue&lt;int&gt;::try_push_mpmc</text>
</g>
<g >
<title>[libc.so.6] (47,275,966 samples, 0.98%)</title><rect x="964.5" y="325" width="11.6" height="15.0" fill="rgb(223,84,20)" rx="2" ry="2" />
<text  x="967.52" y="335.5" ></text>
</g>
<g >
<title>benchmark_http_parser (1,296,032,747 samples, 26.82%)</title><rect x="730.4" y="373" width="316.4" height="15.0" fill="rgb(207,13,3)" rx="2" ry="2" />
<text  x="733.38" y="383.5" >benchmark_http_parser</text>
</g>
<g >
<title>ret_from_fork_asm (8,748,703 samples, 0.18%)</title><rect x="1187.9" y="389" width="2.1" height="15.0" fill="rgb(240,163,39)" rx="2" ry="2" />
<text  x="1190.86" y="399.5" ></text>
</g>
<g >
<title>std::__atomic_base&lt;unsigned long&gt;::compare_exchange_weak (1,236,136,638 samples, 25.58%)</title><rect x="411.7" y="197" width="301.9" height="15.0" fill="rgb(208,14,3)" rx="2" ry="2" />
<text  x="414.74" y="207.5" >std::__atomic_base&lt;unsigned long&gt;::compa..</text>
</g>
<g >
<title>do_futex (992,915 samples, 0.02%)</title><rect x="1078.6" y="197" width="0.3" height="15.0" fill="rgb(245,184,44)" rx="2" ry="2" />
<text  x="1081.64" y="207.5" ></text>
</g>
<g >
<title>free_pgtables (20,932,276 samples, 0.43%)</title><rect x="1182.8" y="181" width="5.1" height="15.0" fill="rgb(208,17,4)" rx="2" ry="2" />
<text  x="1185.75" y="191.5" ></text>
</g>
<g >
<title>_mm_set1_epi8 (61,522,722 samples, 1.27%)</title><rect x="914.9" y="277" width="15.0" height="15.0" fill="rgb(237,147,35)" rx="2" ry="2" />
<text  x="917.91" y="287.5" ></text>
</g>
<g >
<title>do_vmi_munmap (20,932,276 samples, 0.43%)</title><rect x="1182.8" y="229" width="5.1" height="15.0" fill="rgb(253,223,53)" rx="2" ry="2" />
<text  x="1185.75" y="239.5" ></text>
</g>
<g >
<title>katana::ring_buffer_queue&lt;int&gt;::try_pop (425,381,821 samples, 8.80%)</title><rect x="1078.9" y="309" width="103.9" height="15.0" fill="rgb(252,217,52)" rx="2" ry="2" />
<text  x="1081.88" y="319.5" >katana::ring..</text>
</g>
<g >
<title>x64_sys_call (20,932,276 samples, 0.43%)</title><rect x="1182.8" y="357" width="5.1" height="15.0" fill="rgb(247,194,46)" rx="2" ry="2" />
<text  x="1185.75" y="367.5" ></text>
</g>
<g >
<title>katana::http::parser::parser (242,831,000 samples, 5.02%)</title><rect x="964.5" y="357" width="59.3" height="15.0" fill="rgb(253,224,53)" rx="2" ry="2" />
<text  x="967.52" y="367.5" >katana..</text>
</g>
<g >
<title>std::_Hash_bytes (425,381,821 samples, 8.80%)</title><rect x="1078.9" y="229" width="103.9" height="15.0" fill="rgb(232,127,30)" rx="2" ry="2" />
<text  x="1081.88" y="239.5" >std::_Hash_b..</text>
</g>
<g >
<title>x64_sys_call (1,958,997 samples, 0.04%)</title><rect x="713.6" y="101" width="0.5" height="15.0" fill="rgb(247,194,46)" rx="2" ry="2" />
<text  x="716.58" y="111.5" ></text>
</g>
<g >
<title>futex_wait (638,006 samples, 0.01%)</title><rect x="713.6" y="53" width="0.1" height="15.0" fill="rgb(235,138,33)" rx="2" ry="2" />
<text  x="716.58" y="63.5" ></text>
</g>
<g >
<title>katana::http::parser::parse_request_line_state (47,275,766 samples, 0.98%)</title><rect x="929.9" y="325" width="11.6" height="15.0" fill="rgb(220,70,16)" rx="2" ry="2" />
<text  x="932.93" y="335.5" ></text>
</g>
<g >
<title>katana::http::parser::process_request_line (47,275,766 samples, 0.98%)</title><rect x="929.9" y="309" width="11.6" height="15.0" fill="rgb(231,123,29)" rx="2" ry="2" />
<text  x="932.93" y="319.5" ></text>
</g>
<g >
<title>do_syscall_64 (20,932,276 samples, 0.43%)</title><rect x="1182.8" y="373" width="5.1" height="15.0" fill="rgb(209,20,4)" rx="2" ry="2" />
<text  x="1185.75" y="383.5" ></text>
</g>
<g >
<title>katana::monotonic_arena::~monotonic_arena (94,291,772 samples, 1.95%)</title><rect x="1023.8" y="309" width="23.0" height="15.0" fill="rgb(249,206,49)" rx="2" ry="2" />
<text  x="1026.82" y="319.5" >k..</text>
</g>
<g >
<title>katana::monotonic_arena::block::~block (94,291,772 samples, 1.95%)</title><rect x="1023.8" y="277" width="23.0" height="15.0" fill="rgb(253,223,53)" rx="2" ry="2" />
<text  x="1026.82" y="287.5" >k..</text>
</g>
<g >
<title>std::basic_string_view&lt;char, std::char_traits&lt;char&gt; &gt;::substr (48,527,826 samples, 1.00%)</title><rect x="903.1" y="293" width="11.8" height="15.0" fill="rgb(242,172,41)" rx="2" ry="2" />
<text  x="906.06" y="303.5" ></text>
</g>
<g >
<title>std::__atomic_base&lt;unsigned long&gt;::wait (1,958,997 samples, 0.04%)</title><rect x="713.6" y="229" width="0.5" height="15.0" fill="rgb(245,184,44)" rx="2" ry="2" />
<text  x="716.58" y="239.5" ></text>
</g>
<g >
<title>load_elf_binary (20,932,276 samples, 0.43%)</title><rect x="1182.8" y="293" width="5.1" height="15.0" fill="rgb(223,83,20)" rx="2" ry="2" />
<text  x="1185.75" y="303.5" ></text>
</g>
<g >
<title>entry_SYSCALL_64_after_hwframe (992,915 samples, 0.02%)</title><rect x="1078.6" y="261" width="0.3" height="15.0" fill="rgb(218,63,15)" rx="2" ry="2" />
<text  x="1081.64" y="271.5" ></text>
</g>
<g >
<title>benchmark_circular_buffer (130,215,334 samples, 2.69%)</title><rect x="1046.8" y="325" width="31.8" height="15.0" fill="rgb(214,43,10)" rx="2" ry="2" />
<text  x="1049.84" y="335.5" >be..</text>
</g>
<g >
<title>unsigned long const&amp; std::min&lt;unsigned long&gt; (47,898,441 samples, 0.99%)</title><rect x="903.2" y="277" width="11.7" height="15.0" fill="rgb(207,13,3)" rx="2" ry="2" />
<text  x="906.22" y="287.5" ></text>
</g>
<g >
<title>performance_ben (4,832,227,410 samples, 100.00%)</title><rect x="10.1" y="405" width="1179.9" height="15.0" fill="rgb(245,187,44)" rx="2" ry="2" />
<text  x="13.06" y="415.5" >performance_ben</text>
</g>
<g >
<title>entry_SYSCALL_64_after_hwframe (1,958,997 samples, 0.04%)</title><rect x="713.6" y="133" width="0.5" height="15.0" fill="rgb(218,63,15)" rx="2" ry="2" />
<text  x="716.58" y="143.5" ></text>
</g>
<g >
<title>benchmark_ring_buffer_concurrent (992,915 samples, 0.02%)</title><rect x="1078.6" y="325" width="0.3" height="15.0" fill="rgb(222,81,19)" rx="2" ry="2" />
<text  x="1081.64" y="335.5" ></text>
</g>
<g >
<title>irqentry_exit_to_user_mode (629,385 samples, 0.01%)</title><rect x="903.1" y="229" width="0.1" height="15.0" fill="rgb(254,229,54)" rx="2" ry="2" />
<text  x="906.06" y="239.5" ></text>
</g>
<g >
<title>_start (556,590,070 samples, 11.52%)</title><rect x="1046.8" y="389" width="136.0" height="15.0" fill="rgb(245,185,44)" rx="2" ry="2" />
<text  x="1049.84" y="399.5" >_start</text>
</g>
<g >
<title>katana::http::ci_equal_short (51,122,965 samples, 1.06%)</title><rect x="804.0" y="261" width="12.5" height="15.0" fill="rgb(214,44,10)" rx="2" ry="2" />
<text  x="807.02" y="271.5" ></text>
</g>
<g >
<title>entry_SYSCALL_64_after_hwframe (20,932,276 samples, 0.43%)</title><rect x="1182.8" y="389" width="5.1" height="15.0" fill="rgb(218,63,15)" rx="2" ry="2" />
<text  x="1185.75" y="399.5" ></text>
</g>
<g >
<title>elf_map (20,932,276 samples, 0.43%)</title><rect x="1182.8" y="277" width="5.1" height="15.0" fill="rgb(236,145,34)" rx="2" ry="2" />
<text  x="1185.75" y="287.5" ></text>
</g>
<g >
<title>irqentry_exit (629,385 samples, 0.01%)</title><rect x="903.1" y="245" width="0.1" height="15.0" fill="rgb(219,66,15)" rx="2" ry="2" />
<text  x="906.06" y="255.5" ></text>
</g>
<g >
<title>katana::simd::find_crlf_sse2 (61,522,722 samples, 1.27%)</title><rect x="914.9" y="293" width="15.0" height="15.0" fill="rgb(247,196,46)" rx="2" ry="2" />
<text  x="917.91" y="303.5" ></text>
</g>
<g >
<title>katana::http::ci_equal_fast (51,122,965 samples, 1.06%)</title><rect x="804.0" y="293" width="12.5" height="15.0" fill="rgb(254,227,54)" rx="2" ry="2" />
<text  x="807.02" y="303.5" ></text>
</g>
<g >
<title>katana::http::headers_map::headers_map (47,275,966 samples, 0.98%)</title><rect x="964.5" y="341" width="11.6" height="15.0" fill="rgb(247,194,46)" rx="2" ry="2" />
<text  x="967.52" y="351.5" ></text>
</g>
<g >
<title>schedule_tail (8,748,703 samples, 0.18%)</title><rect x="1187.9" y="357" width="2.1" height="15.0" fill="rgb(239,157,37)" rx="2" ry="2" />
<text  x="1190.86" y="367.5" ></text>
</g>
<g >
<title>unsigned long std::_Hash_impl::hash&lt;unsigned long&gt; (425,381,821 samples, 8.80%)</title><rect x="1078.9" y="261" width="103.9" height="15.0" fill="rgb(212,34,8)" rx="2" ry="2" />
<text  x="1081.88" y="271.5" >unsigned lon..</text>
</g>
<g >
<title>katana::http::request::~request (94,291,772 samples, 1.95%)</title><rect x="1023.8" y="341" width="23.0" height="15.0" fill="rgb(237,151,36)" rx="2" ry="2" />
<text  x="1026.82" y="351.5" >k..</text>
</g>
<g >
<title>std::__detail::__waiter_pool::_M_do_wait (1,958,997 samples, 0.04%)</title><rect x="713.6" y="181" width="0.5" height="15.0" fill="rgb(216,54,13)" rx="2" ry="2" />
<text  x="716.58" y="191.5" ></text>
</g>
<g >
<title>vm_munmap (20,932,276 samples, 0.43%)</title><rect x="1182.8" y="261" width="5.1" height="15.0" fill="rgb(208,16,4)" rx="2" ry="2" />
<text  x="1185.75" y="271.5" ></text>
</g>
<g >
<title>__vm_munmap (20,932,276 samples, 0.43%)</title><rect x="1182.8" y="245" width="5.1" height="15.0" fill="rgb(231,121,28)" rx="2" ry="2" />
<text  x="1185.75" y="255.5" ></text>
</g>
<g >
<title>exit_to_user_mode_prepare (629,385 samples, 0.01%)</title><rect x="903.1" y="213" width="0.1" height="15.0" fill="rgb(228,108,25)" rx="2" ry="2" />
<text  x="906.06" y="223.5" ></text>
</g>
</g>
</svg>
